<mxfile host="app.diagrams.net" modified="2024-04-01T19:42:47.634Z" agent="Mozilla/5.0 (Macintosh; Intel Mac OS X 10.15; rv:123.0) Gecko/20100101 Firefox/123.0" etag="gTdIRtxE4HfNjvP-9dFl" version="24.2.1" type="device">
  <diagram name="Page-1" id="c4acf3e9-155e-7222-9cf6-157b1a14988f">
    <mxGraphModel dx="950" dy="589" grid="1" gridSize="10" guides="1" tooltips="1" connect="1" arrows="1" fold="1" page="1" pageScale="1" pageWidth="850" pageHeight="1100" background="none" math="0" shadow="0">
      <root>
        <mxCell id="0" />
        <mxCell id="1" parent="0" />
        <mxCell id="17acba5748e5396b-1" value="frame" style="shape=umlFrame;whiteSpace=wrap;html=1;rounded=0;shadow=0;comic=0;labelBackgroundColor=none;strokeWidth=1;fontFamily=Verdana;fontSize=10;align=center;fillColor=#e51400;strokeColor=#B20000;fontColor=#ffffff;" parent="1" vertex="1">
          <mxGeometry x="11" y="39" width="750" height="800" as="geometry" />
        </mxCell>
        <mxCell id="5d2195bd80daf111-5" value="&lt;font color=&quot;#000000&quot;&gt;&lt;b&gt;Attack&lt;/b&gt;&lt;/font&gt;" style="swimlane;html=1;fontStyle=0;childLayout=stackLayout;horizontal=1;startSize=26;fillColor=#a0522d;horizontalStack=0;resizeParent=1;resizeLast=0;collapsible=1;marginBottom=0;swimlaneFillColor=#ffffff;rounded=0;shadow=0;comic=0;labelBackgroundColor=none;strokeWidth=1;fontFamily=Verdana;fontSize=10;align=center;strokeColor=#6D1F00;fontColor=#ffffff;" parent="1" vertex="1">
          <mxGeometry x="365" y="334.5" width="160" height="80" as="geometry">
            <mxRectangle x="365" y="341.5" width="60" height="30" as="alternateBounds" />
          </mxGeometry>
        </mxCell>
        <mxCell id="5d2195bd80daf111-7" value="&lt;font color=&quot;#000000&quot;&gt;+ name_:&lt;span style=&quot;background-color: initial;&quot;&gt;&amp;nbsp; string&lt;/span&gt;&lt;/font&gt;" style="text;html=1;strokeColor=#6D1F00;fillColor=#a0522d;align=left;verticalAlign=top;spacingLeft=4;spacingRight=4;whiteSpace=wrap;overflow=hidden;rotatable=0;points=[[0,0.5],[1,0.5]];portConstraint=eastwest;fontColor=#ffffff;" parent="5d2195bd80daf111-5" vertex="1">
          <mxGeometry y="26" width="160" height="26" as="geometry" />
        </mxCell>
        <mxCell id="5d2195bd80daf111-6" value="&lt;div&gt;&lt;font color=&quot;#000000&quot;&gt;+ type_&lt;span style=&quot;background-color: initial;&quot;&gt;:&amp;nbsp; vector&amp;lt;string&amp;gt;&lt;/span&gt;&lt;/font&gt;&lt;/div&gt;&lt;br&gt;&lt;div&gt;&lt;br&gt;&lt;font color=&quot;#000000&quot;&gt;&lt;span style=&quot;background-color: initial;&quot;&gt;&lt;/span&gt;&lt;/font&gt;&lt;/div&gt;" style="text;html=1;strokeColor=#6D1F00;fillColor=#a0522d;align=left;verticalAlign=top;spacingLeft=4;spacingRight=4;whiteSpace=wrap;overflow=hidden;rotatable=0;points=[[0,0.5],[1,0.5]];portConstraint=eastwest;fontColor=#ffffff;" parent="5d2195bd80daf111-5" vertex="1">
          <mxGeometry y="52" width="160" height="28" as="geometry" />
        </mxCell>
        <mxCell id="5d2195bd80daf111-18" value="&lt;p style=&quot;margin:0px;margin-top:4px;text-align:center;&quot;&gt;&lt;b style=&quot;color: rgb(0, 0, 0);&quot;&gt;Creature&lt;/b&gt;&lt;/p&gt;&lt;hr size=&quot;1&quot;&gt;&lt;p style=&quot;margin:0px;margin-left:4px;&quot;&gt;&lt;font color=&quot;#000000&quot;&gt;+&amp;nbsp;attack_queue_&lt;span style=&quot;background-color: initial;&quot;&gt;: queue&amp;lt;Attack&amp;gt;&lt;/span&gt;&lt;/font&gt;&lt;/p&gt;&lt;hr size=&quot;1&quot;&gt;&lt;p style=&quot;margin:0px;margin-left:4px;&quot;&gt;&lt;font color=&quot;#000000&quot;&gt;+ getAttackQueue&lt;span style=&quot;background-color: initial;&quot;&gt;(): queue&amp;lt;Attack&amp;gt;&lt;br&gt;&lt;/span&gt;&lt;/font&gt;&lt;/p&gt;&lt;p style=&quot;margin:0px;margin-left:4px;&quot;&gt;&lt;font color=&quot;#000000&quot;&gt;+ addAttack&lt;span style=&quot;background-color: initial;&quot;&gt;(int&amp;amp;): virtual void&lt;/span&gt;&lt;/font&gt;&lt;/p&gt;&lt;p style=&quot;margin:0px;margin-left:4px;&quot;&gt;&lt;font color=&quot;#000000&quot;&gt;&lt;span style=&quot;background-color: initial;&quot;&gt;+ addAttack&lt;/span&gt;(Attack&amp;amp;): void&lt;/font&gt;&lt;/p&gt;&lt;p style=&quot;margin:0px;margin-left:4px;&quot;&gt;&lt;font color=&quot;#000000&quot;&gt;+ clearAttackQueue( ): void&lt;/font&gt;&lt;/p&gt;&lt;p style=&quot;margin:0px;margin-left:4px;&quot;&gt;&lt;font color=&quot;#000000&quot;&gt;+ displayAttacks( ): virtual void &lt;br&gt;&lt;/font&gt;&lt;/p&gt;" style="verticalAlign=top;align=left;overflow=fill;fontSize=12;fontFamily=Helvetica;html=1;rounded=0;shadow=0;comic=0;labelBackgroundColor=none;strokeWidth=1;fillColor=#647687;strokeColor=#314354;fontColor=#ffffff;" parent="1" vertex="1">
          <mxGeometry x="70" y="310.5" width="230" height="169.5" as="geometry" />
        </mxCell>
        <mxCell id="4ksczK10U6PqRp9tJ_Qj-7" value="&lt;p style=&quot;margin:0px;margin-top:4px;text-align:center;&quot;&gt;&lt;b style=&quot;color: rgb(0, 0, 0);&quot;&gt;Cavern&lt;/b&gt;&lt;/p&gt;&lt;hr size=&quot;1&quot;&gt;&lt;p style=&quot;margin:0px;margin-left:4px;&quot;&gt;&lt;font color=&quot;#000000&quot;&gt;+ alien_stack_&lt;span style=&quot;background-color: initial;&quot;&gt;: stack&amp;lt;Creature*&amp;gt;&lt;/span&gt;&lt;/font&gt;&lt;/p&gt;&lt;p style=&quot;margin:0px;margin-left:4px;&quot;&gt;&lt;font color=&quot;#000000&quot;&gt;+ undead_stack_ : stack&amp;lt;Creature*&amp;gt;&lt;/font&gt;&lt;/p&gt;&lt;p style=&quot;margin:0px;margin-left:4px;&quot;&gt;&lt;font color=&quot;#000000&quot;&gt;+ mystical_stack_ &lt;/font&gt;&lt;font color=&quot;#000000&quot;&gt;: stack&amp;lt;Creature*&amp;gt;&lt;/font&gt;&lt;/p&gt;&lt;p style=&quot;margin:0px;margin-left:4px;&quot;&gt;&lt;font color=&quot;#000000&quot;&gt;+ unknown_stack_ &lt;/font&gt;&lt;font color=&quot;#000000&quot;&gt;: stack&amp;lt;Creature*&amp;gt;&lt;/font&gt;&lt;/p&gt;&lt;hr size=&quot;1&quot;&gt;&lt;p style=&quot;margin:0px;margin-left:4px;&quot;&gt;&lt;font color=&quot;#000000&quot;&gt;+ initializeAlienStack&lt;span style=&quot;background-color: initial;&quot;&gt;( ): void&lt;/span&gt;&lt;/font&gt;&lt;/p&gt;&lt;p style=&quot;margin:0px;margin-left:4px;&quot;&gt;&lt;font color=&quot;#000000&quot;&gt;+ &lt;/font&gt;&lt;font color=&quot;#000000&quot;&gt;initializeUndeadStack&lt;span style=&quot;background-color: initial;&quot;&gt;( ): void&lt;/span&gt;&lt;/font&gt;&lt;/p&gt;&lt;p style=&quot;margin:0px;margin-left:4px;&quot;&gt;&lt;span style=&quot;color: rgb(0, 0, 0); background-color: initial;&quot;&gt;+ &lt;/span&gt;&lt;font color=&quot;#000000&quot;&gt;initializeMysticalStack&lt;span style=&quot;background-color: initial;&quot;&gt;( ): void&lt;/span&gt;&lt;/font&gt;&lt;/p&gt;&lt;p style=&quot;margin:0px;margin-left:4px;&quot;&gt;&lt;font color=&quot;#000000&quot;&gt;+ &lt;/font&gt;&lt;font color=&quot;#000000&quot;&gt;initializeUnknownStack&lt;span style=&quot;background-color: initial;&quot;&gt;( ): void&lt;/span&gt;&lt;/font&gt;&lt;/p&gt;&lt;p style=&quot;margin:0px;margin-left:4px;&quot;&gt;&lt;font color=&quot;#000000&quot;&gt;+ getAlienStack&lt;span style=&quot;background-color: initial;&quot;&gt;( ): &lt;/span&gt;&lt;/font&gt;&lt;font color=&quot;#000000&quot;&gt;stack&amp;lt;Creature*&amp;gt;&lt;/font&gt;&lt;/p&gt;&lt;p style=&quot;margin:0px;margin-left:4px;&quot;&gt;&lt;font color=&quot;#000000&quot;&gt;+ &lt;/font&gt;&lt;font color=&quot;#000000&quot;&gt;getUndeadStack&lt;span style=&quot;background-color: initial;&quot;&gt;( ): &lt;/span&gt;&lt;/font&gt;&lt;font color=&quot;#000000&quot;&gt;stack&amp;lt;Creature*&amp;gt;&lt;/font&gt;&lt;/p&gt;&lt;p style=&quot;margin:0px;margin-left:4px;&quot;&gt;&lt;font color=&quot;#000000&quot;&gt;&lt;span style=&quot;background-color: initial;&quot;&gt;+ &lt;/span&gt;&lt;/font&gt;&lt;font color=&quot;#000000&quot;&gt;getMysticalStack&lt;span style=&quot;background-color: initial;&quot;&gt;( ): &lt;/span&gt;&lt;/font&gt;&lt;font color=&quot;#000000&quot;&gt;stack&amp;lt;Creature*&amp;gt;&lt;/font&gt;&lt;/p&gt;&lt;p style=&quot;margin:0px;margin-left:4px;&quot;&gt;&lt;font color=&quot;#000000&quot;&gt;&lt;span style=&quot;background-color: initial;&quot;&gt;+ &lt;/span&gt;&lt;/font&gt;&lt;font color=&quot;#000000&quot;&gt;getUnknownStack&lt;span style=&quot;background-color: initial;&quot;&gt;( ): &lt;/span&gt;&lt;/font&gt;&lt;font color=&quot;#000000&quot;&gt;stack&amp;lt;Creature*&amp;gt;&lt;/font&gt;&lt;/p&gt;&lt;p style=&quot;margin:0px;margin-left:4px;&quot;&gt;&lt;font color=&quot;#000000&quot;&gt;&lt;span style=&quot;background-color: initial;&quot;&gt;+ &lt;/span&gt;&lt;/font&gt;&lt;font color=&quot;#000000&quot;&gt;clearAlienStack&lt;span style=&quot;background-color: initial;&quot;&gt;( ): &lt;/span&gt;&lt;/font&gt;&lt;font color=&quot;#000000&quot;&gt;void&lt;/font&gt;&lt;/p&gt;&lt;p style=&quot;margin:0px;margin-left:4px;&quot;&gt;&lt;font color=&quot;#000000&quot;&gt;&lt;span style=&quot;background-color: initial;&quot;&gt;+ &lt;/span&gt;&lt;/font&gt;&lt;font color=&quot;#000000&quot;&gt;&lt;span style=&quot;background-color: initial;&quot;&gt;&lt;/span&gt;&lt;/font&gt;&lt;font color=&quot;#000000&quot;&gt;clearUndeadStack&lt;span style=&quot;background-color: initial;&quot;&gt;( ): &lt;/span&gt;&lt;/font&gt;&lt;font color=&quot;#000000&quot;&gt;void&lt;/font&gt;&lt;/p&gt;&lt;p style=&quot;margin:0px;margin-left:4px;&quot;&gt;&lt;font color=&quot;#000000&quot;&gt;&lt;span style=&quot;background-color: initial;&quot;&gt;+ &lt;/span&gt;&lt;/font&gt;&lt;font color=&quot;#000000&quot;&gt;&lt;span style=&quot;background-color: initial;&quot;&gt;&lt;/span&gt;&lt;/font&gt;&lt;font color=&quot;#000000&quot;&gt;clearMysticalStack&lt;span style=&quot;background-color: initial;&quot;&gt;( ): &lt;/span&gt;&lt;/font&gt;&lt;font color=&quot;#000000&quot;&gt;void&lt;/font&gt;&lt;/p&gt;&lt;p style=&quot;margin:0px;margin-left:4px;&quot;&gt;&lt;font color=&quot;#000000&quot;&gt;&lt;span style=&quot;background-color: initial;&quot;&gt;+ &lt;/span&gt;&lt;/font&gt;&lt;font color=&quot;#000000&quot;&gt;&lt;span style=&quot;background-color: initial;&quot;&gt;&lt;/span&gt;&lt;/font&gt;&lt;font color=&quot;#000000&quot;&gt;clearUnknownStack&lt;span style=&quot;background-color: initial;&quot;&gt;( ): &lt;/span&gt;&lt;/font&gt;&lt;font color=&quot;#000000&quot;&gt;void&lt;/font&gt;&lt;/p&gt;&lt;p style=&quot;margin:0px;margin-left:4px;&quot;&gt;&lt;font color=&quot;#000000&quot;&gt;&lt;span style=&quot;background-color: initial;&quot;&gt;+ setAttacks(&lt;/span&gt;&lt;/font&gt;&lt;font color=&quot;#000000&quot;&gt;stack&amp;lt;Creature*&amp;gt;&lt;/font&gt;&lt;font color=&quot;#000000&quot;&gt;&lt;span style=&quot;background-color: initial;&quot;&gt;) : void&lt;/span&gt;&lt;/font&gt;&lt;/p&gt;" style="verticalAlign=top;align=left;overflow=fill;fontSize=12;fontFamily=Helvetica;html=1;rounded=0;shadow=0;comic=0;labelBackgroundColor=none;strokeWidth=1;fillColor=#647687;strokeColor=#314354;fontColor=#ffffff;" parent="1" vertex="1">
          <mxGeometry x="100" y="520" width="310" height="300" as="geometry" />
        </mxCell>
        <mxCell id="4ksczK10U6PqRp9tJ_Qj-12" style="edgeStyle=orthogonalEdgeStyle;rounded=0;html=1;dashed=1;labelBackgroundColor=none;startFill=0;endArrow=open;endFill=0;endSize=10;fontFamily=Verdana;fontSize=10;exitX=1.019;exitY=0.161;exitDx=0;exitDy=0;exitPerimeter=0;" parent="1" edge="1">
          <mxGeometry relative="1" as="geometry">
            <Array as="points">
              <mxPoint x="350" y="349.5" />
              <mxPoint x="350" y="349.5" />
            </Array>
            <mxPoint x="300" y="349.5" as="sourcePoint" />
            <mxPoint x="365" y="349.5" as="targetPoint" />
          </mxGeometry>
        </mxCell>
        <mxCell id="yIucAvc20dPRBrfsBlQP-1" value="&lt;div&gt;&lt;font color=&quot;#000000&quot;&gt;+ damage_&lt;span style=&quot;background-color: initial;&quot;&gt;:&amp;nbsp; vector&amp;lt;int&amp;gt;&lt;/span&gt;&lt;/font&gt;&lt;/div&gt;&lt;br&gt;&lt;div&gt;&lt;br&gt;&lt;font color=&quot;#000000&quot;&gt;&lt;span style=&quot;background-color: initial;&quot;&gt;&lt;/span&gt;&lt;/font&gt;&lt;/div&gt;" style="text;html=1;strokeColor=#6D1F00;fillColor=#a0522d;align=left;verticalAlign=top;spacingLeft=4;spacingRight=4;whiteSpace=wrap;overflow=hidden;rotatable=0;points=[[0,0.5],[1,0.5]];portConstraint=eastwest;fontColor=#ffffff;" vertex="1" parent="1">
          <mxGeometry x="365" y="414.5" width="160" height="28" as="geometry" />
        </mxCell>
      </root>
    </mxGraphModel>
  </diagram>
</mxfile>
